<?xml version="1.0" encoding="utf-8"?>
<!-- Generator: Adobe Illustrator 18.0.0, SVG Export Plug-In . SVG Version: 6.00 Build 0)  -->
<svg version="1.2" baseProfile="tiny" id="Vrstva_1"
	 xmlns="http://www.w3.org/2000/svg" xmlns:xlink="http://www.w3.org/1999/xlink" x="0px" y="0px" viewBox="0 0 1280 215"
	 xml:space="preserve">
<g>
	<g>
		<rect y="41" fill="none" width="1280" height="727"/>
		<path d="M65,173.2c-10.7-6.6-19.2-15.5-25.4-26.6c-6.2-11.1-9.3-23-9.3-35.7c0-13,3.1-25,9.3-36.1C45.8,63.8,54.2,55,65,48.5
			c10.7-6.5,22.4-9.8,35-9.8c12.6,0,24.2,3.1,34.9,9.4l-2.9,5c-9.8-5.9-20.5-8.8-32-8.8c-17.8,0-32.9,6.4-45.4,19.3
			c-12.4,12.9-18.6,28.6-18.6,47.3c0,17.9,6.3,33.5,18.9,46.7c12.6,13.2,27.6,19.8,45.1,19.8c11.5,0,22.2-2.9,32.2-8.8l2.7,5
			c-10.9,6.3-22.5,9.4-34.9,9.4C87.3,183.1,75.7,179.8,65,173.2z" style="fill: #fff" />
		<path d="M155.6,146.6c-6.4-11.1-9.6-23-9.6-35.7c0-12.7,3.2-24.6,9.6-35.7c6.4-11.1,15.1-19.9,26.2-26.6c11.1-6.6,23.1-9.9,36-9.9
			c12.9,0,24.9,3.3,36.1,9.9c11.1,6.6,19.9,15.5,26.3,26.6c6.4,11.1,9.6,23,9.6,35.7c0,12.7-3.2,24.6-9.6,35.7
			c-6.4,11.1-15.2,19.9-26.3,26.6c-11.1,6.6-23.2,9.9-36.1,9.9c-12.9,0-24.9-3.3-36-9.9C170.7,166.5,162,157.7,155.6,146.6z
			 M184.6,53.6c-10.2,6.1-18.2,14.3-24.2,24.5c-5.9,10.2-8.9,21.1-8.9,32.9c0,11.7,3,22.7,8.9,32.9c5.9,10.2,14,18.3,24.2,24.5
			c10.2,6.1,21.3,9.2,33.2,9.2c18.1,0,33.7-6.6,46.8-19.8c13.1-13.2,19.6-28.8,19.6-46.7s-6.5-33.5-19.6-46.7
			C251.6,51,236,44.4,217.8,44.4C205.9,44.4,194.8,47.4,184.6,53.6z" style="fill: #fff" />
		<path d="M297.8,181L399.8,46.3h-96.3v-5.6h107.7L309.2,175.4h96.3v5.6H297.8z" style="fill: #fff" />
		<path d="M476.4,181v-69.3l-52.5-71.2h7l48.3,65.4l47.5-65.4h7L482,111.7V181H476.4z" style="fill: #fff" />
		<path d="M690.6,110.4c11.1,2.1,20.2,6.4,27.3,12.8c7.1,6.4,10.6,13.7,10.6,21.8c0,10.1-4.4,18.7-13.2,25.6
			c-8.8,6.9-20.3,10.4-34.5,10.4h-38.4V40.4h29c14.6,0,26.5,3.5,35.5,10.6c9.1,7.1,13.6,15.9,13.6,26.3c0,7.1-2.7,13.7-8.2,19.6
			C707,102.8,699.7,107.3,690.6,110.4z M648.1,46v62.7h18.6c13.3,0,24.7-3.1,34.2-9.2C710.2,93.3,715,86,715,77.3
			c0-8.9-4-16.3-12-22.3c-8-6-18.5-9-31.5-9H648.1z M680.9,175.4c12.7,0,22.9-2.9,30.6-8.7c7.7-5.8,11.5-13,11.5-21.7
			c0-8.3-4.6-15.4-13.8-21.4c-9.2-5.9-20.2-8.9-33.1-8.9l-28-0.3v61H680.9z" style="fill: #fff" />
		<path d="M752.6,125.5V41h5.6v84.5c0,16,4.2,28.7,12.6,38c8.4,9.3,20.2,14,35.4,14c15.1,0,26.9-4.7,35.4-14
			c8.4-9.3,12.6-22,12.6-38V41h5.6v84.5c0,17.5-4.8,31.5-14.3,41.9c-9.5,10.5-22.6,15.7-39.3,15.7c-16.6,0-29.7-5.2-39.3-15.7
			C757.3,156.9,752.6,143,752.6,125.5z" style="fill: #fff" />
		<path d="M915.8,41c13.8,0,26.5,3.1,38.2,9.4c11.7,6.2,20.9,14.7,27.7,25.4c6.8,10.7,10.2,22.4,10.2,35.1
			c0,19.3-7.4,35.8-22.2,49.5c-14.8,13.7-32.7,20.6-53.8,20.6h-32V41H915.8z M915.8,175.4c19.4,0,36-6.3,49.8-18.9
			c13.8-12.6,20.6-27.8,20.6-45.6c0-17.7-6.9-32.9-20.6-45.4c-13.8-12.6-30.3-18.9-49.8-18.9h-26.4v128.8H915.8z" style="fill: #fff" />
		<path d="M1043,41c13.8,0,26.5,3.1,38.2,9.4c11.7,6.2,20.9,14.7,27.7,25.4c6.8,10.7,10.2,22.4,10.2,35.1c0,19.3-7.4,35.8-22.2,49.5
			c-14.8,13.7-32.7,20.6-53.8,20.6h-32V41H1043z M1043,175.4c19.4,0,36-6.3,49.8-18.9c13.8-12.6,20.6-27.8,20.6-45.6
			c0-17.7-6.9-32.9-20.6-45.4c-13.8-12.6-30.3-18.9-49.8-18.9h-26.4v128.8H1043z" style="fill: #fff" />
		<path d="M1168.2,181v-69.3l-52.5-71.2h7l48.3,65.4l47.5-65.4h7l-51.8,71.2V181H1168.2z" style="fill: #fff" />
	</g>
	<path stroke="#000000" stroke-width="3" stroke-miterlimit="10" d="M143.5,313"/>
	<path stroke="#000000" stroke-width="3" stroke-miterlimit="10" d="M143.5,237"/>
	<path fill="none" stroke="#000000" stroke-width="3" stroke-miterlimit="10" d="M172,298"/>
	<path fill="none" stroke="#000000" stroke-width="3" stroke-miterlimit="10" d="M144,275"/>
	<path fill="none" stroke="#000000" stroke-width="3" stroke-miterlimit="10" d="M116,298"/>
	<path fill="none" stroke="#000000" stroke-width="3" stroke-miterlimit="10" d="M144,275"/>
</g>
<line fill="none" stroke="#fff" stroke-width="5" stroke-miterlimit="10" x1="218.5" y1="41" x2="218.5" y2="180"/>
<line fill="none" stroke="#fff" stroke-width="5" stroke-miterlimit="10" x1="218.5" y1="110.5" x2="270" y2="154"/>
<line fill="none" stroke="#fff" stroke-width="5" stroke-miterlimit="10" x1="218.5" y1="110.5" x2="162" y2="154"/>
<g>
</g>
<g>
</g>
<g>
</g>
<g>
</g>
<g>
</g>
<g>
</g>
<g>
</g>
<g>
</g>
<g>
</g>
<g>
</g>
<g>
</g>
<g>
</g>
<g>
</g>
<g>
</g>
<g>
</g>
</svg>
