<?xml version="1.0" encoding="utf-8"?>
<!-- Generator: Adobe Illustrator 18.0.0, SVG Export Plug-In . SVG Version: 6.00 Build 0)  -->
<svg version="1.2" baseProfile="tiny" id="Vrstva_1"
	 xmlns="http://www.w3.org/2000/svg" xmlns:xlink="http://www.w3.org/1999/xlink" x="0px" y="0px" viewBox="0 0 50 50"
	 xml:space="preserve">
<path fill="#4e5463" d="M49,34.3c0-0.3,0-0.7-0.1-1l-5-17.7c-0.1-0.5-0.4-0.9-0.8-1.2V3.5c0-1.1-0.9-2-2-2H8.9c-1.1,0-2,0.9-2,2v10.9
	c-0.4,0.3-0.7,0.7-0.8,1.2l-5,17.7C1,33.6,1,34,1,34.3h0v8.1c0,1.6,1.3,2.8,2.8,2.8h1v3.3h1v-3.3h38.3v3.3h1v-3.3h1
	c1.6,0,2.8-1.3,2.8-2.8L49,34.3L49,34.3z M47.9,33.6c0.2,0.8-0.1,1.6-0.7,2c-0.3,0.2-0.6,0.3-1,0.3H25.5v-21h2.8
	c0,0.6-0.1,1.1-0.2,1.6l-0.1,0.6l0.6-0.1c3.5-0.3,7.1-0.3,10.6,0l0.6,0.1l-0.1-0.6c-0.1-0.5-0.1-1-0.2-1.6h1.9c0.6,0,1.2,0.4,1.4,1
	L47.9,33.6z M29.3,8.7c3.1,0.2,6.3,0.2,9.5,0c-0.3,2.3-0.3,5,0,7.3c-1.6-0.1-3.2-0.2-4.7-0.2c-1.6,0-3.2,0.1-4.7,0.2
	C29.6,13.7,29.6,10.9,29.3,8.7z M7.9,13.8V3.5c0-0.5,0.4-1,1-1h32.2c0.5,0,1,0.4,1,1v10.3h-0.5h-1.9c-0.1-1.9,0-4,0.2-5.6L40,7.5
	l-0.6,0.1c-3.5,0.3-7.1,0.3-10.6,0l-0.6-0.1l0.1,0.6c0.3,1.7,0.3,3.7,0.2,5.6h-6.9c-0.1-1.9,0-4,0.2-5.6l0.1-0.6l-0.6,0.1
	c-3.5,0.3-7.1,0.3-10.6,0L10,7.5l0.1,0.6c0.3,1.7,0.3,3.7,0.2,5.6H8.4H7.9z M20.7,16c-3.1-0.2-6.3-0.2-9.5,0c0.3-2.3,0.3-5,0-7.3
	c3.1,0.2,6.3,0.2,9.5,0C20.4,10.9,20.4,13.7,20.7,16z M2.1,33.6l5-17.7c0.2-0.6,0.7-1,1.4-1h1.9c0,0.6-0.1,1.1-0.2,1.6L10,17.1
	l0.6-0.1c3.5-0.3,7.1-0.3,10.6,0l0.6,0.1l-0.1-0.6c-0.1-0.5-0.1-1-0.2-1.6h2.8v21H3.8c-0.3,0-0.7-0.1-1-0.3
	C2.2,35.2,1.9,34.4,2.1,33.6z M46.2,44.2H3.8c-1,0-1.8-0.8-1.8-1.8v-6.1c0.1,0.1,0.1,0.1,0.2,0.2c0.5,0.3,1,0.4,1.5,0.4h42.5
	c0.5,0,1.1-0.2,1.5-0.4c0.1,0,0.1-0.1,0.2-0.2v6.1C48,43.4,47.2,44.2,46.2,44.2z"/>
<g>
</g>
<g>
</g>
<g>
</g>
<g>
</g>
<g>
</g>
<g>
</g>
<g>
</g>
<g>
</g>
<g>
</g>
<g>
</g>
<g>
</g>
<g>
</g>
<g>
</g>
<g>
</g>
<g>
</g>
</svg>
