<?xml version="1.0" encoding="utf-8"?>
<!-- Generator: Adobe Illustrator 18.0.0, SVG Export Plug-In . SVG Version: 6.00 Build 0)  -->
<svg version="1.2" baseProfile="tiny" id="Vrstva_1"
	 xmlns="http://www.w3.org/2000/svg" xmlns:xlink="http://www.w3.org/1999/xlink" x="0px" y="0px" viewBox="0 0 50 50"
	 xml:space="preserve">
<path display="none" fill="#4e5463" d="M43.7,13.8V9.6c0-2.9-2.4-5.3-5.3-5.3H11.6c-2.9,0-5.3,2.4-5.3,5.3v4.2
	c-3.8,0.2-5.8,2.9-5.8,5.6c0,2,0.8,3.2,1.7,4.5c1.2,1.8,2.5,3.7,2.5,8.8v9.6c0,1,0.8,1.8,1.8,1.8h1.9c0.1,0.9,0.9,1.6,1.8,1.6h3.5
	c0.9,0,1.7-0.7,1.8-1.6h19.2c0.1,0.9,0.9,1.6,1.8,1.6h3.5c0.9,0,1.7-0.7,1.8-1.6h1.9c1,0,1.8-0.8,1.8-1.8v-9.6c0-5,1.3-7,2.5-8.8
	c0.9-1.3,1.7-2.5,1.7-4.5C49.5,16.7,47.4,13.9,43.7,13.8z M11.6,5.6h26.8c2.2,0,4,1.8,4,4v4.2c-2.5,0.4-5,2.3-5,6.7v4.8
	c-0.6-0.4-1.3-0.7-2.1-0.7H14.7c-0.8,0-1.5,0.3-2.1,0.7v-4.8c0-4.4-2.5-6.4-5-6.7V9.6C7.6,7.4,9.4,5.6,11.6,5.6z M12.6,28.3V28
	c0-1.1,0.9-2.1,2.1-2.1h20.6c1.1,0,2.1,0.9,2.1,2.1v0.8c0,1-0.8,1.8-1.8,1.8H14.7c-1.1,0-2.1-0.9-2.1-2.1V28.3z M13.6,44.4h-3.5
	c-0.2,0-0.4-0.2-0.5-0.4h4.4C14.1,44.2,13.9,44.4,13.6,44.4z M39.8,44.4h-3.5c-0.2,0-0.4-0.2-0.5-0.4h4.4
	C40.3,44.2,40.1,44.4,39.8,44.4z M46.8,23.1c-1.2,1.8-2.8,4.1-2.8,9.5v9.6c0,0.3-0.2,0.5-0.5,0.5h-37c-0.3,0-0.5-0.2-0.5-0.5v-9.6
	c0-5.4-1.5-7.7-2.8-9.5c-0.8-1.2-1.5-2.1-1.5-3.8c0-2.1,1.7-4.3,4.9-4.3c2.3,0,4.7,1.5,4.7,5.5V28v0.2v0.4c0,1.8,1.5,3.3,3.3,3.3
	h20.8c1.7,0,3.1-1.4,3.1-3.1v-0.6h0V28c0,0,0,0,0,0v-7.5c0-4.1,2.4-5.5,4.7-5.5c3.2,0,4.9,2.2,4.9,4.3C48.2,21,47.6,21.9,46.8,23.1z
	"/>
<path display="none" fill="#4e5463" d="M49.1,35.2h0.4V14.7c0-1.7-1.4-3.1-3.1-3.1h-4.6c-0.7,0-1.3,0.2-1.8,0.6v-5
	c0-1.7-1.4-3.1-3.1-3.1H13.2c-1.7,0-3.1,1.4-3.1,3.1v5c-0.5-0.4-1.2-0.6-1.8-0.6H3.6c-1.7,0-3.1,1.4-3.1,3.1v20.5h0.4
	c-0.2,0.4-0.4,0.8-0.4,1.3v0.9c0,1.3,0.9,2.4,2.2,2.6v4.4c0,0.9,0.8,1.7,1.7,1.7C5.3,46,6,45.3,6,44.3v-4.4h38v4.4
	c0,0.9,0.8,1.7,1.7,1.7c0.9,0,1.7-0.8,1.7-1.7v-4.4c1.2-0.2,2.2-1.3,2.2-2.6v-0.9C49.5,36,49.4,35.5,49.1,35.2z M11.4,28.3v-0.8
	c0-1,0.8-1.8,1.8-1.8h23.6c1,0,1.8,0.8,1.8,1.8v6.4H11.4V28.3z M41.8,12.8h4.6c1,0,1.8,0.8,1.8,1.8v19.2h-8.3v-6.4c0,0,0,0,0,0v-2.5
	V14.7C39.9,13.7,40.8,12.8,41.8,12.8z M11.4,7.1c0-1,0.8-1.8,1.8-1.8h23.6c1,0,1.8,0.8,1.8,1.8v7.5v10.2c-0.5-0.4-1.2-0.6-1.8-0.6
	H13.2c-0.7,0-1.3,0.2-1.8,0.6V14.7V7.1z M1.8,14.7c0-1,0.8-1.8,1.8-1.8h4.6c1,0,1.8,0.8,1.8,1.8v12.8v0.8v5.6H1.8V14.7z M4.7,44.3
	c0,0.2-0.2,0.4-0.4,0.4c-0.2,0-0.4-0.2-0.4-0.4v-4.4h0.8V44.3z M45.7,44.7c-0.2,0-0.4-0.2-0.4-0.4v-4.4H46v4.4
	C46,44.5,45.9,44.7,45.7,44.7z M48.2,37.3c0,0.7-0.6,1.3-1.3,1.3H3.1c-0.7,0-1.3-0.6-1.3-1.3v-0.9c0-0.7,0.6-1.3,1.3-1.3h43.8
	c0.7,0,1.3,0.6,1.3,1.3V37.3z"/>
<path display="none" fill="#4e5463" d="M38.1,26.4c-0.2-0.3-0.5-0.5-1-0.5h-2.1V1.3h-2.9v0.5H17.8V1.3h-2.9v24.7h-2.1
	c-0.4,0-0.8,0.2-1,0.5c-0.2,0.2-0.2,0.6-0.2,0.9c0,0.6,0.4,2.6,1.2,2.6h0.7l-0.6,18.7l2.6,0l1-12.6h16.8l1,12.6l2.6,0L36.5,30h0.7
	c0.8,0,1.2-2,1.2-2.6C38.4,27,38.3,26.7,38.1,26.4z M34.1,2.2v23.7h-1V2.2H34.1z M17.8,25.9V4.7h2v21.2H17.8z M20.8,4.7h1.9v21.2
	h-1.9V4.7z M23.6,4.7h3v21.2h-3V4.7z M27.5,4.7h1.6v21.2h-1.6V4.7z M30.1,4.7h2v21.2h-2V4.7z M32.2,2.7v1H17.8v-1H32.2z M15.9,2.2h1
	v23.7h-1V2.2z M14.7,47.8l-0.8,0L14.5,30h1.7L14.7,47.8z M32.9,30l0.3,3.3H16.8l0.3-3.3H32.9z M16.7,35.2l0.1-1h16.5l0.1,1H16.7z
	 M36.1,47.8l-0.8,0L33.8,30h1.7L36.1,47.8z M37,29H13c-0.2-0.4-0.6-1.6-0.4-2.1c0-0.1,0.1-0.1,0.2-0.1h24.4c0.1,0,0.2,0,0.2,0.1
	C37.6,27.4,37.2,28.6,37,29z"/>
<path fill="#4e5463" d="M45,16c-0.3-3.6-3.3-6.4-6.9-6.4H12C8.3,9.7,5.3,12.5,5,16h0v0.6v2.3v12.2h2.8l1,9.2h3.4l1-9.2h23.5l1,9.2
	h3.4l1-9.2H45V18.9v-2.3L45,16L45,16z M12,10.9H38c3,0,5.4,2.3,5.7,5.2H6.3C6.6,13.1,9,10.9,12,10.9z M11.1,39.1H9.9l-0.9-8h3
	L11.1,39.1z M40.1,39.1h-1.2l-0.9-8h3L40.1,39.1z M43.8,29.9h-1.4h-5.7H13.4H7.7H6.2v-11v-1.6h37.5v1.6V29.9z"/>
<g>
</g>
<g>
</g>
<g>
</g>
<g>
</g>
<g>
</g>
<g>
</g>
<g>
</g>
<g>
</g>
<g>
</g>
<g>
</g>
<g>
</g>
<g>
</g>
<g>
</g>
<g>
</g>
<g>
</g>
</svg>
