<?xml version="1.0" encoding="utf-8"?>
<!-- Generator: Adobe Illustrator 18.0.0, SVG Export Plug-In . SVG Version: 6.00 Build 0)  -->
<svg version="1.2" baseProfile="tiny" id="Vrstva_1"
	 xmlns="http://www.w3.org/2000/svg" xmlns:xlink="http://www.w3.org/1999/xlink" x="0px" y="0px" viewBox="0 0 50 50"
	 xml:space="preserve">
<path display="none" fill="#4e5463" d="M43.7,13.8V9.6c0-2.9-2.4-5.3-5.3-5.3H11.6c-2.9,0-5.3,2.4-5.3,5.3v4.2
	c-3.8,0.2-5.8,2.9-5.8,5.6c0,2,0.8,3.2,1.7,4.5c1.2,1.8,2.5,3.7,2.5,8.8v9.6c0,1,0.8,1.8,1.8,1.8h1.9c0.1,0.9,0.9,1.6,1.8,1.6h3.5
	c0.9,0,1.7-0.7,1.8-1.6h19.2c0.1,0.9,0.9,1.6,1.8,1.6h3.5c0.9,0,1.7-0.7,1.8-1.6h1.9c1,0,1.8-0.8,1.8-1.8v-9.6c0-5,1.3-7,2.5-8.8
	c0.9-1.3,1.7-2.5,1.7-4.5C49.5,16.7,47.4,13.9,43.7,13.8z M11.6,5.6h26.8c2.2,0,4,1.8,4,4v4.2c-2.5,0.4-5,2.3-5,6.7v4.8
	c-0.6-0.4-1.3-0.7-2.1-0.7H14.7c-0.8,0-1.5,0.3-2.1,0.7v-4.8c0-4.4-2.5-6.4-5-6.7V9.6C7.6,7.4,9.4,5.6,11.6,5.6z M12.6,28.3V28
	c0-1.1,0.9-2.1,2.1-2.1h20.6c1.1,0,2.1,0.9,2.1,2.1v0.8c0,1-0.8,1.8-1.8,1.8H14.7c-1.1,0-2.1-0.9-2.1-2.1V28.3z M13.6,44.4h-3.5
	c-0.2,0-0.4-0.2-0.5-0.4h4.4C14.1,44.2,13.9,44.4,13.6,44.4z M39.8,44.4h-3.5c-0.2,0-0.4-0.2-0.5-0.4h4.4
	C40.3,44.2,40.1,44.4,39.8,44.4z M46.8,23.1c-1.2,1.8-2.8,4.1-2.8,9.5v9.6c0,0.3-0.2,0.5-0.5,0.5h-37c-0.3,0-0.5-0.2-0.5-0.5v-9.6
	c0-5.4-1.5-7.7-2.8-9.5c-0.8-1.2-1.5-2.1-1.5-3.8c0-2.1,1.7-4.3,4.9-4.3c2.3,0,4.7,1.5,4.7,5.5V28v0.2v0.4c0,1.8,1.5,3.3,3.3,3.3
	h20.8c1.7,0,3.1-1.4,3.1-3.1v-0.6h0V28c0,0,0,0,0,0v-7.5c0-4.1,2.4-5.5,4.7-5.5c3.2,0,4.9,2.2,4.9,4.3C48.2,21,47.6,21.9,46.8,23.1z
	"/>
<path fill="#4e5463" d="M49.1,35.2h0.4V14.7c0-1.7-1.4-3.1-3.1-3.1h-4.6c-0.7,0-1.3,0.2-1.8,0.6v-5c0-1.7-1.4-3.1-3.1-3.1H13.2
	c-1.7,0-3.1,1.4-3.1,3.1v5c-0.5-0.4-1.2-0.6-1.8-0.6H3.6c-1.7,0-3.1,1.4-3.1,3.1v20.5h0.4c-0.2,0.4-0.4,0.8-0.4,1.3v0.9
	c0,1.3,0.9,2.4,2.2,2.6v4.4c0,0.9,0.8,1.7,1.7,1.7C5.3,46,6,45.3,6,44.3v-4.4h38v4.4c0,0.9,0.8,1.7,1.7,1.7c0.9,0,1.7-0.8,1.7-1.7
	v-4.4c1.2-0.2,2.2-1.3,2.2-2.6v-0.9C49.5,36,49.4,35.5,49.1,35.2z M11.4,28.3v-0.8c0-1,0.8-1.8,1.8-1.8h23.6c1,0,1.8,0.8,1.8,1.8
	v6.4H11.4V28.3z M41.8,12.8h4.6c1,0,1.8,0.8,1.8,1.8v19.2h-8.3v-6.4c0,0,0,0,0,0v-2.5V14.7C39.9,13.7,40.8,12.8,41.8,12.8z
	 M11.4,7.1c0-1,0.8-1.8,1.8-1.8h23.6c1,0,1.8,0.8,1.8,1.8v7.5v10.2c-0.5-0.4-1.2-0.6-1.8-0.6H13.2c-0.7,0-1.3,0.2-1.8,0.6V14.7V7.1z
	 M1.8,14.7c0-1,0.8-1.8,1.8-1.8h4.6c1,0,1.8,0.8,1.8,1.8v12.8v0.8v5.6H1.8V14.7z M4.7,44.3c0,0.2-0.2,0.4-0.4,0.4
	c-0.2,0-0.4-0.2-0.4-0.4v-4.4h0.8V44.3z M45.7,44.7c-0.2,0-0.4-0.2-0.4-0.4v-4.4H46v4.4C46,44.5,45.9,44.7,45.7,44.7z M48.2,37.3
	c0,0.7-0.6,1.3-1.3,1.3H3.1c-0.7,0-1.3-0.6-1.3-1.3v-0.9c0-0.7,0.6-1.3,1.3-1.3h43.8c0.7,0,1.3,0.6,1.3,1.3V37.3z"/>
<g>
</g>
<g>
</g>
<g>
</g>
<g>
</g>
<g>
</g>
<g>
</g>
<g>
</g>
<g>
</g>
<g>
</g>
<g>
</g>
<g>
</g>
<g>
</g>
<g>
</g>
<g>
</g>
<g>
</g>
</svg>
